<?xml version="1.0" encoding="utf-8" standalone="no"?>
<!DOCTYPE svg PUBLIC "-//W3C//DTD SVG 1.1//EN"
  "http://www.w3.org/Graphics/SVG/1.1/DTD/svg11.dtd">
<svg xmlns:xlink="http://www.w3.org/1999/xlink" width="460.8pt" height="345.6pt" viewBox="0 0 460.8 345.6" xmlns="http://www.w3.org/2000/svg" version="1.1">
 <metadata>
  <rdf:RDF xmlns:dc="http://purl.org/dc/elements/1.1/" xmlns:cc="http://creativecommons.org/ns#" xmlns:rdf="http://www.w3.org/1999/02/22-rdf-syntax-ns#">
   <cc:Work>
    <dc:type rdf:resource="http://purl.org/dc/dcmitype/StillImage"/>
    <dc:date>2024-08-08T15:20:27.153123</dc:date>
    <dc:format>image/svg+xml</dc:format>
    <dc:creator>
     <cc:Agent>
      <dc:title>Matplotlib v3.8.3, https://matplotlib.org/</dc:title>
     </cc:Agent>
    </dc:creator>
   </cc:Work>
  </rdf:RDF>
 </metadata>
 <defs>
  <style type="text/css">*{stroke-linejoin: round; stroke-linecap: butt}</style>
 </defs>
 <g id="figure_1">
  <g id="patch_1">
   <path d="M 0 345.6 
L 460.8 345.6 
L 460.8 0 
L 0 0 
z
" style="fill: #ffffff"/>
  </g>
  <g id="axes_1">
   <g id="patch_2">
    <path d="M 83.127273 320.072727 
L 156.763636 320.072727 
L 156.763636 246.436364 
L 83.127273 246.436364 
z
" clip-path="url(#p7d13ad6d8a)" style="fill: #ffa500; stroke: #000000; stroke-linejoin: miter"/>
   </g>
   <g id="patch_3">
    <path d="M 83.127273 246.436364 
L 156.763636 246.436364 
L 156.763636 172.8 
L 83.127273 172.8 
z
" clip-path="url(#p7d13ad6d8a)" style="fill: #ffa500; stroke: #000000; stroke-linejoin: miter"/>
   </g>
   <g id="patch_4">
    <path d="M 83.127273 172.8 
L 156.763636 172.8 
L 156.763636 99.163636 
L 83.127273 99.163636 
z
" clip-path="url(#p7d13ad6d8a)" style="fill: #ffa500; stroke: #000000; stroke-linejoin: miter"/>
   </g>
   <g id="patch_5">
    <path d="M 83.127273 99.163636 
L 156.763636 99.163636 
L 156.763636 25.527273 
L 83.127273 25.527273 
z
" clip-path="url(#p7d13ad6d8a)" style="fill: #ff0000; stroke: #000000; stroke-linejoin: miter"/>
   </g>
   <g id="patch_6">
    <path d="M 156.763636 320.072727 
L 230.4 320.072727 
L 230.4 246.436364 
L 156.763636 246.436364 
z
" clip-path="url(#p7d13ad6d8a)" style="fill: #0000ff; stroke: #000000; stroke-linejoin: miter"/>
   </g>
   <g id="patch_7">
    <path d="M 156.763636 246.436364 
L 230.4 246.436364 
L 230.4 172.8 
L 156.763636 172.8 
z
" clip-path="url(#p7d13ad6d8a)" style="fill: #ffa500; stroke: #000000; stroke-linejoin: miter"/>
   </g>
   <g id="patch_8">
    <path d="M 156.763636 172.8 
L 230.4 172.8 
L 230.4 99.163636 
L 156.763636 99.163636 
z
" clip-path="url(#p7d13ad6d8a)" style="fill: #008000; stroke: #000000; stroke-linejoin: miter"/>
   </g>
   <g id="patch_9">
    <path d="M 156.763636 99.163636 
L 230.4 99.163636 
L 230.4 25.527273 
L 156.763636 25.527273 
z
" clip-path="url(#p7d13ad6d8a)" style="fill: #ff0000; stroke: #000000; stroke-linejoin: miter"/>
   </g>
   <g id="patch_10">
    <path d="M 230.4 320.072727 
L 304.036364 320.072727 
L 304.036364 246.436364 
L 230.4 246.436364 
z
" clip-path="url(#p7d13ad6d8a)" style="fill: #0000ff; stroke: #000000; stroke-linejoin: miter"/>
   </g>
   <g id="patch_11">
    <path d="M 230.4 246.436364 
L 304.036364 246.436364 
L 304.036364 172.8 
L 230.4 172.8 
z
" clip-path="url(#p7d13ad6d8a)" style="fill: #0000ff; stroke: #000000; stroke-linejoin: miter"/>
   </g>
   <g id="patch_12">
    <path d="M 230.4 172.8 
L 304.036364 172.8 
L 304.036364 99.163636 
L 230.4 99.163636 
z
" clip-path="url(#p7d13ad6d8a)" style="fill: #008000; stroke: #000000; stroke-linejoin: miter"/>
   </g>
   <g id="patch_13">
    <path d="M 230.4 99.163636 
L 304.036364 99.163636 
L 304.036364 25.527273 
L 230.4 25.527273 
z
" clip-path="url(#p7d13ad6d8a)" style="fill: #ff0000; stroke: #000000; stroke-linejoin: miter"/>
   </g>
   <g id="patch_14">
    <path d="M 304.036364 320.072727 
L 377.672727 320.072727 
L 377.672727 246.436364 
L 304.036364 246.436364 
z
" clip-path="url(#p7d13ad6d8a)" style="fill: #0000ff; stroke: #000000; stroke-linejoin: miter"/>
   </g>
   <g id="patch_15">
    <path d="M 304.036364 246.436364 
L 377.672727 246.436364 
L 377.672727 172.8 
L 304.036364 172.8 
z
" clip-path="url(#p7d13ad6d8a)" style="fill: #008000; stroke: #000000; stroke-linejoin: miter"/>
   </g>
   <g id="patch_16">
    <path d="M 304.036364 172.8 
L 377.672727 172.8 
L 377.672727 99.163636 
L 304.036364 99.163636 
z
" clip-path="url(#p7d13ad6d8a)" style="fill: #008000; stroke: #000000; stroke-linejoin: miter"/>
   </g>
   <g id="patch_17">
    <path d="M 304.036364 99.163636 
L 377.672727 99.163636 
L 377.672727 25.527273 
L 304.036364 25.527273 
z
" clip-path="url(#p7d13ad6d8a)" style="fill: #ff0000; stroke: #000000; stroke-linejoin: miter"/>
   </g>
  </g>
 </g>
 <defs>
  <clipPath id="p7d13ad6d8a">
   <rect x="68.4" y="10.8" width="324" height="324"/>
  </clipPath>
 </defs>
</svg>
