<?xml version="1.0" encoding="utf-8" standalone="no"?>
<!DOCTYPE svg PUBLIC "-//W3C//DTD SVG 1.1//EN"
  "http://www.w3.org/Graphics/SVG/1.1/DTD/svg11.dtd">
<svg xmlns:xlink="http://www.w3.org/1999/xlink" width="460.8pt" height="345.6pt" viewBox="0 0 460.8 345.6" xmlns="http://www.w3.org/2000/svg" version="1.1">
 <metadata>
  <rdf:RDF xmlns:dc="http://purl.org/dc/elements/1.1/" xmlns:cc="http://creativecommons.org/ns#" xmlns:rdf="http://www.w3.org/1999/02/22-rdf-syntax-ns#">
   <cc:Work>
    <dc:type rdf:resource="http://purl.org/dc/dcmitype/StillImage"/>
    <dc:date>2024-08-08T15:21:48.724357</dc:date>
    <dc:format>image/svg+xml</dc:format>
    <dc:creator>
     <cc:Agent>
      <dc:title>Matplotlib v3.8.3, https://matplotlib.org/</dc:title>
     </cc:Agent>
    </dc:creator>
   </cc:Work>
  </rdf:RDF>
 </metadata>
 <defs>
  <style type="text/css">*{stroke-linejoin: round; stroke-linecap: butt}</style>
 </defs>
 <g id="figure_1">
  <g id="patch_1">
   <path d="M 0 345.6 
L 460.8 345.6 
L 460.8 0 
L 0 0 
z
" style="fill: #ffffff"/>
  </g>
  <g id="axes_1">
   <g id="patch_2">
    <path d="M 167.283117 320.072727 
L 209.361039 320.072727 
L 209.361039 277.994805 
L 167.283117 277.994805 
z
" clip-path="url(#p90459709a4)" style="fill: #0000ff; stroke: #000000; stroke-linejoin: miter"/>
   </g>
   <g id="patch_3">
    <path d="M 167.283117 277.994805 
L 209.361039 277.994805 
L 209.361039 235.916883 
L 167.283117 235.916883 
z
" clip-path="url(#p90459709a4)" style="fill: #0000ff; stroke: #000000; stroke-linejoin: miter"/>
   </g>
   <g id="patch_4">
    <path d="M 167.283117 235.916883 
L 209.361039 235.916883 
L 209.361039 193.838961 
L 167.283117 193.838961 
z
" clip-path="url(#p90459709a4)" style="fill: #0000ff; stroke: #000000; stroke-linejoin: miter"/>
   </g>
   <g id="patch_5">
    <path d="M 167.283117 193.838961 
L 209.361039 193.838961 
L 209.361039 151.761039 
L 167.283117 151.761039 
z
" clip-path="url(#p90459709a4)" style="fill: #0000ff; stroke: #000000; stroke-linejoin: miter"/>
   </g>
   <g id="patch_6">
    <path d="M 167.283117 151.761039 
L 209.361039 151.761039 
L 209.361039 109.683117 
L 167.283117 109.683117 
z
" clip-path="url(#p90459709a4)" style="fill: #008000; stroke: #000000; stroke-linejoin: miter"/>
   </g>
   <g id="patch_7">
    <path d="M 167.283117 109.683117 
L 209.361039 109.683117 
L 209.361039 67.605195 
L 167.283117 67.605195 
z
" clip-path="url(#p90459709a4)" style="fill: #008000; stroke: #000000; stroke-linejoin: miter"/>
   </g>
   <g id="patch_8">
    <path d="M 167.283117 67.605195 
L 209.361039 67.605195 
L 209.361039 25.527273 
L 167.283117 25.527273 
z
" clip-path="url(#p90459709a4)" style="fill: #008000; stroke: #000000; stroke-linejoin: miter"/>
   </g>
   <g id="patch_9">
    <path d="M 209.361039 320.072727 
L 251.438961 320.072727 
L 251.438961 277.994805 
L 209.361039 277.994805 
z
" clip-path="url(#p90459709a4)" style="fill: #800080; stroke: #000000; stroke-linejoin: miter"/>
   </g>
   <g id="patch_10">
    <path d="M 209.361039 277.994805 
L 251.438961 277.994805 
L 251.438961 235.916883 
L 209.361039 235.916883 
z
" clip-path="url(#p90459709a4)" style="fill: #800080; stroke: #000000; stroke-linejoin: miter"/>
   </g>
   <g id="patch_11">
    <path d="M 209.361039 193.838961 
L 251.438961 193.838961 
L 251.438961 151.761039 
L 209.361039 151.761039 
z
" clip-path="url(#p90459709a4)" style="fill: #ff0000; stroke: #000000; stroke-linejoin: miter"/>
   </g>
   <g id="patch_12">
    <path d="M 209.361039 151.761039 
L 251.438961 151.761039 
L 251.438961 109.683117 
L 209.361039 109.683117 
z
" clip-path="url(#p90459709a4)" style="fill: #ff0000; stroke: #000000; stroke-linejoin: miter"/>
   </g>
   <g id="patch_13">
    <path d="M 209.361039 109.683117 
L 251.438961 109.683117 
L 251.438961 67.605195 
L 209.361039 67.605195 
z
" clip-path="url(#p90459709a4)" style="fill: #ffa500; stroke: #000000; stroke-linejoin: miter"/>
   </g>
   <g id="patch_14">
    <path d="M 209.361039 67.605195 
L 251.438961 67.605195 
L 251.438961 25.527273 
L 209.361039 25.527273 
z
" clip-path="url(#p90459709a4)" style="fill: #008000; stroke: #000000; stroke-linejoin: miter"/>
   </g>
   <g id="patch_15">
    <path d="M 251.438961 320.072727 
L 293.516883 320.072727 
L 293.516883 277.994805 
L 251.438961 277.994805 
z
" clip-path="url(#p90459709a4)" style="fill: #800080; stroke: #000000; stroke-linejoin: miter"/>
   </g>
   <g id="patch_16">
    <path d="M 251.438961 277.994805 
L 293.516883 277.994805 
L 293.516883 235.916883 
L 251.438961 235.916883 
z
" clip-path="url(#p90459709a4)" style="fill: #800080; stroke: #000000; stroke-linejoin: miter"/>
   </g>
   <g id="patch_17">
    <path d="M 251.438961 235.916883 
L 293.516883 235.916883 
L 293.516883 193.838961 
L 251.438961 193.838961 
z
" clip-path="url(#p90459709a4)" style="fill: #ff0000; stroke: #000000; stroke-linejoin: miter"/>
   </g>
   <g id="patch_18">
    <path d="M 251.438961 193.838961 
L 293.516883 193.838961 
L 293.516883 151.761039 
L 251.438961 151.761039 
z
" clip-path="url(#p90459709a4)" style="fill: #ff0000; stroke: #000000; stroke-linejoin: miter"/>
   </g>
   <g id="patch_19">
    <path d="M 251.438961 151.761039 
L 293.516883 151.761039 
L 293.516883 109.683117 
L 251.438961 109.683117 
z
" clip-path="url(#p90459709a4)" style="fill: #ffa500; stroke: #000000; stroke-linejoin: miter"/>
   </g>
   <g id="patch_20">
    <path d="M 251.438961 109.683117 
L 293.516883 109.683117 
L 293.516883 67.605195 
L 251.438961 67.605195 
z
" clip-path="url(#p90459709a4)" style="fill: #ffa500; stroke: #000000; stroke-linejoin: miter"/>
   </g>
   <g id="patch_21">
    <path d="M 251.438961 67.605195 
L 293.516883 67.605195 
L 293.516883 25.527273 
L 251.438961 25.527273 
z
" clip-path="url(#p90459709a4)" style="fill: #ffa500; stroke: #000000; stroke-linejoin: miter"/>
   </g>
  </g>
 </g>
 <defs>
  <clipPath id="p90459709a4">
   <rect x="160.971429" y="10.8" width="138.857143" height="324"/>
  </clipPath>
 </defs>
</svg>
