<?xml version="1.0" encoding="utf-8" standalone="no"?>
<!DOCTYPE svg PUBLIC "-//W3C//DTD SVG 1.1//EN"
  "http://www.w3.org/Graphics/SVG/1.1/DTD/svg11.dtd">
<svg xmlns:xlink="http://www.w3.org/1999/xlink" width="460.8pt" height="345.6pt" viewBox="0 0 460.8 345.6" xmlns="http://www.w3.org/2000/svg" version="1.1">
 <metadata>
  <rdf:RDF xmlns:dc="http://purl.org/dc/elements/1.1/" xmlns:cc="http://creativecommons.org/ns#" xmlns:rdf="http://www.w3.org/1999/02/22-rdf-syntax-ns#">
   <cc:Work>
    <dc:type rdf:resource="http://purl.org/dc/dcmitype/StillImage"/>
    <dc:date>2024-08-08T15:23:35.907441</dc:date>
    <dc:format>image/svg+xml</dc:format>
    <dc:creator>
     <cc:Agent>
      <dc:title>Matplotlib v3.8.3, https://matplotlib.org/</dc:title>
     </cc:Agent>
    </dc:creator>
   </cc:Work>
  </rdf:RDF>
 </metadata>
 <defs>
  <style type="text/css">*{stroke-linejoin: round; stroke-linecap: butt}</style>
 </defs>
 <g id="figure_1">
  <g id="patch_1">
   <path d="M 0 345.6 
L 460.8 345.6 
L 460.8 0 
L 0 0 
z
" style="fill: #ffffff"/>
  </g>
  <g id="axes_1">
   <g id="patch_2">
    <path d="M 150.069421 320.072727 
L 176.846281 320.072727 
L 176.846281 293.295868 
L 150.069421 293.295868 
z
" clip-path="url(#p47ffbdd33a)" style="fill: #0000ff; stroke: #000000; stroke-linejoin: miter"/>
   </g>
   <g id="patch_3">
    <path d="M 150.069421 293.295868 
L 176.846281 293.295868 
L 176.846281 266.519008 
L 150.069421 266.519008 
z
" clip-path="url(#p47ffbdd33a)" style="fill: #0000ff; stroke: #000000; stroke-linejoin: miter"/>
   </g>
   <g id="patch_4">
    <path d="M 150.069421 266.519008 
L 176.846281 266.519008 
L 176.846281 239.742149 
L 150.069421 239.742149 
z
" clip-path="url(#p47ffbdd33a)" style="fill: #ffa500; stroke: #000000; stroke-linejoin: miter"/>
   </g>
   <g id="patch_5">
    <path d="M 150.069421 239.742149 
L 176.846281 239.742149 
L 176.846281 212.965289 
L 150.069421 212.965289 
z
" clip-path="url(#p47ffbdd33a)" style="fill: #ffa500; stroke: #000000; stroke-linejoin: miter"/>
   </g>
   <g id="patch_6">
    <path d="M 150.069421 212.965289 
L 176.846281 212.965289 
L 176.846281 186.18843 
L 150.069421 186.18843 
z
" clip-path="url(#p47ffbdd33a)" style="fill: #ffa500; stroke: #000000; stroke-linejoin: miter"/>
   </g>
   <g id="patch_7">
    <path d="M 150.069421 159.41157 
L 176.846281 159.41157 
L 176.846281 132.634711 
L 150.069421 132.634711 
z
" clip-path="url(#p47ffbdd33a)" style="fill: #800080; stroke: #000000; stroke-linejoin: miter"/>
   </g>
   <g id="patch_8">
    <path d="M 150.069421 132.634711 
L 176.846281 132.634711 
L 176.846281 105.857851 
L 150.069421 105.857851 
z
" clip-path="url(#p47ffbdd33a)" style="fill: #800080; stroke: #000000; stroke-linejoin: miter"/>
   </g>
   <g id="patch_9">
    <path d="M 150.069421 105.857851 
L 176.846281 105.857851 
L 176.846281 79.080992 
L 150.069421 79.080992 
z
" clip-path="url(#p47ffbdd33a)" style="fill: #800080; stroke: #000000; stroke-linejoin: miter"/>
   </g>
   <g id="patch_10">
    <path d="M 150.069421 79.080992 
L 176.846281 79.080992 
L 176.846281 52.304132 
L 150.069421 52.304132 
z
" clip-path="url(#p47ffbdd33a)" style="fill: #800080; stroke: #000000; stroke-linejoin: miter"/>
   </g>
   <g id="patch_11">
    <path d="M 150.069421 52.304132 
L 176.846281 52.304132 
L 176.846281 25.527273 
L 150.069421 25.527273 
z
" clip-path="url(#p47ffbdd33a)" style="fill: #008000; stroke: #000000; stroke-linejoin: miter"/>
   </g>
   <g id="patch_12">
    <path d="M 176.846281 320.072727 
L 203.62314 320.072727 
L 203.62314 293.295868 
L 176.846281 293.295868 
z
" clip-path="url(#p47ffbdd33a)" style="fill: #0000ff; stroke: #000000; stroke-linejoin: miter"/>
   </g>
   <g id="patch_13">
    <path d="M 176.846281 293.295868 
L 203.62314 293.295868 
L 203.62314 266.519008 
L 176.846281 266.519008 
z
" clip-path="url(#p47ffbdd33a)" style="fill: #0000ff; stroke: #000000; stroke-linejoin: miter"/>
   </g>
   <g id="patch_14">
    <path d="M 176.846281 266.519008 
L 203.62314 266.519008 
L 203.62314 239.742149 
L 176.846281 239.742149 
z
" clip-path="url(#p47ffbdd33a)" style="fill: #ffa500; stroke: #000000; stroke-linejoin: miter"/>
   </g>
   <g id="patch_15">
    <path d="M 176.846281 239.742149 
L 203.62314 239.742149 
L 203.62314 212.965289 
L 176.846281 212.965289 
z
" clip-path="url(#p47ffbdd33a)" style="fill: #add8e6; stroke: #000000; stroke-linejoin: miter"/>
   </g>
   <g id="patch_16">
    <path d="M 176.846281 212.965289 
L 203.62314 212.965289 
L 203.62314 186.18843 
L 176.846281 186.18843 
z
" clip-path="url(#p47ffbdd33a)" style="fill: #ffa500; stroke: #000000; stroke-linejoin: miter"/>
   </g>
   <g id="patch_17">
    <path d="M 176.846281 159.41157 
L 203.62314 159.41157 
L 203.62314 132.634711 
L 176.846281 132.634711 
z
" clip-path="url(#p47ffbdd33a)" style="fill: #ff0000; stroke: #000000; stroke-linejoin: miter"/>
   </g>
   <g id="patch_18">
    <path d="M 176.846281 132.634711 
L 203.62314 132.634711 
L 203.62314 105.857851 
L 176.846281 105.857851 
z
" clip-path="url(#p47ffbdd33a)" style="fill: #ff0000; stroke: #000000; stroke-linejoin: miter"/>
   </g>
   <g id="patch_19">
    <path d="M 176.846281 105.857851 
L 203.62314 105.857851 
L 203.62314 79.080992 
L 176.846281 79.080992 
z
" clip-path="url(#p47ffbdd33a)" style="fill: #800080; stroke: #000000; stroke-linejoin: miter"/>
   </g>
   <g id="patch_20">
    <path d="M 176.846281 79.080992 
L 203.62314 79.080992 
L 203.62314 52.304132 
L 176.846281 52.304132 
z
" clip-path="url(#p47ffbdd33a)" style="fill: #808080; stroke: #000000; stroke-linejoin: miter"/>
   </g>
   <g id="patch_21">
    <path d="M 176.846281 52.304132 
L 203.62314 52.304132 
L 203.62314 25.527273 
L 176.846281 25.527273 
z
" clip-path="url(#p47ffbdd33a)" style="fill: #008000; stroke: #000000; stroke-linejoin: miter"/>
   </g>
   <g id="patch_22">
    <path d="M 203.62314 320.072727 
L 230.4 320.072727 
L 230.4 293.295868 
L 203.62314 293.295868 
z
" clip-path="url(#p47ffbdd33a)" style="fill: #0000ff; stroke: #000000; stroke-linejoin: miter"/>
   </g>
   <g id="patch_23">
    <path d="M 203.62314 293.295868 
L 230.4 293.295868 
L 230.4 266.519008 
L 203.62314 266.519008 
z
" clip-path="url(#p47ffbdd33a)" style="fill: #808000; stroke: #000000; stroke-linejoin: miter"/>
   </g>
   <g id="patch_24">
    <path d="M 203.62314 266.519008 
L 230.4 266.519008 
L 230.4 239.742149 
L 203.62314 239.742149 
z
" clip-path="url(#p47ffbdd33a)" style="fill: #add8e6; stroke: #000000; stroke-linejoin: miter"/>
   </g>
   <g id="patch_25">
    <path d="M 203.62314 239.742149 
L 230.4 239.742149 
L 230.4 212.965289 
L 203.62314 212.965289 
z
" clip-path="url(#p47ffbdd33a)" style="fill: #add8e6; stroke: #000000; stroke-linejoin: miter"/>
   </g>
   <g id="patch_26">
    <path d="M 203.62314 212.965289 
L 230.4 212.965289 
L 230.4 186.18843 
L 203.62314 186.18843 
z
" clip-path="url(#p47ffbdd33a)" style="fill: #add8e6; stroke: #000000; stroke-linejoin: miter"/>
   </g>
   <g id="patch_27">
    <path d="M 203.62314 159.41157 
L 230.4 159.41157 
L 230.4 132.634711 
L 203.62314 132.634711 
z
" clip-path="url(#p47ffbdd33a)" style="fill: #ff0000; stroke: #000000; stroke-linejoin: miter"/>
   </g>
   <g id="patch_28">
    <path d="M 203.62314 132.634711 
L 230.4 132.634711 
L 230.4 105.857851 
L 203.62314 105.857851 
z
" clip-path="url(#p47ffbdd33a)" style="fill: #808080; stroke: #000000; stroke-linejoin: miter"/>
   </g>
   <g id="patch_29">
    <path d="M 203.62314 105.857851 
L 230.4 105.857851 
L 230.4 79.080992 
L 203.62314 79.080992 
z
" clip-path="url(#p47ffbdd33a)" style="fill: #808080; stroke: #000000; stroke-linejoin: miter"/>
   </g>
   <g id="patch_30">
    <path d="M 203.62314 79.080992 
L 230.4 79.080992 
L 230.4 52.304132 
L 203.62314 52.304132 
z
" clip-path="url(#p47ffbdd33a)" style="fill: #808080; stroke: #000000; stroke-linejoin: miter"/>
   </g>
   <g id="patch_31">
    <path d="M 203.62314 52.304132 
L 230.4 52.304132 
L 230.4 25.527273 
L 203.62314 25.527273 
z
" clip-path="url(#p47ffbdd33a)" style="fill: #008000; stroke: #000000; stroke-linejoin: miter"/>
   </g>
   <g id="patch_32">
    <path d="M 230.4 320.072727 
L 257.17686 320.072727 
L 257.17686 293.295868 
L 230.4 293.295868 
z
" clip-path="url(#p47ffbdd33a)" style="fill: #808000; stroke: #000000; stroke-linejoin: miter"/>
   </g>
   <g id="patch_33">
    <path d="M 230.4 293.295868 
L 257.17686 293.295868 
L 257.17686 266.519008 
L 230.4 266.519008 
z
" clip-path="url(#p47ffbdd33a)" style="fill: #808000; stroke: #000000; stroke-linejoin: miter"/>
   </g>
   <g id="patch_34">
    <path d="M 230.4 266.519008 
L 257.17686 266.519008 
L 257.17686 239.742149 
L 230.4 239.742149 
z
" clip-path="url(#p47ffbdd33a)" style="fill: #808000; stroke: #000000; stroke-linejoin: miter"/>
   </g>
   <g id="patch_35">
    <path d="M 230.4 239.742149 
L 257.17686 239.742149 
L 257.17686 212.965289 
L 230.4 212.965289 
z
" clip-path="url(#p47ffbdd33a)" style="fill: #add8e6; stroke: #000000; stroke-linejoin: miter"/>
   </g>
   <g id="patch_36">
    <path d="M 230.4 212.965289 
L 257.17686 212.965289 
L 257.17686 186.18843 
L 230.4 186.18843 
z
" clip-path="url(#p47ffbdd33a)" style="fill: #ffc0cb; stroke: #000000; stroke-linejoin: miter"/>
   </g>
   <g id="patch_37">
    <path d="M 230.4 159.41157 
L 257.17686 159.41157 
L 257.17686 132.634711 
L 230.4 132.634711 
z
" clip-path="url(#p47ffbdd33a)" style="fill: #ff0000; stroke: #000000; stroke-linejoin: miter"/>
   </g>
   <g id="patch_38">
    <path d="M 230.4 132.634711 
L 257.17686 132.634711 
L 257.17686 105.857851 
L 230.4 105.857851 
z
" clip-path="url(#p47ffbdd33a)" style="fill: #808080; stroke: #000000; stroke-linejoin: miter"/>
   </g>
   <g id="patch_39">
    <path d="M 230.4 105.857851 
L 257.17686 105.857851 
L 257.17686 79.080992 
L 230.4 79.080992 
z
" clip-path="url(#p47ffbdd33a)" style="fill: #ffa07a; stroke: #000000; stroke-linejoin: miter"/>
   </g>
   <g id="patch_40">
    <path d="M 230.4 79.080992 
L 257.17686 79.080992 
L 257.17686 52.304132 
L 230.4 52.304132 
z
" clip-path="url(#p47ffbdd33a)" style="fill: #00ffff; stroke: #000000; stroke-linejoin: miter"/>
   </g>
   <g id="patch_41">
    <path d="M 230.4 52.304132 
L 257.17686 52.304132 
L 257.17686 25.527273 
L 230.4 25.527273 
z
" clip-path="url(#p47ffbdd33a)" style="fill: #008000; stroke: #000000; stroke-linejoin: miter"/>
   </g>
   <g id="patch_42">
    <path d="M 257.17686 320.072727 
L 283.953719 320.072727 
L 283.953719 293.295868 
L 257.17686 293.295868 
z
" clip-path="url(#p47ffbdd33a)" style="fill: #808000; stroke: #000000; stroke-linejoin: miter"/>
   </g>
   <g id="patch_43">
    <path d="M 257.17686 293.295868 
L 283.953719 293.295868 
L 283.953719 266.519008 
L 257.17686 266.519008 
z
" clip-path="url(#p47ffbdd33a)" style="fill: #a52a2a; stroke: #000000; stroke-linejoin: miter"/>
   </g>
   <g id="patch_44">
    <path d="M 257.17686 266.519008 
L 283.953719 266.519008 
L 283.953719 239.742149 
L 257.17686 239.742149 
z
" clip-path="url(#p47ffbdd33a)" style="fill: #a52a2a; stroke: #000000; stroke-linejoin: miter"/>
   </g>
   <g id="patch_45">
    <path d="M 257.17686 239.742149 
L 283.953719 239.742149 
L 283.953719 212.965289 
L 257.17686 212.965289 
z
" clip-path="url(#p47ffbdd33a)" style="fill: #a52a2a; stroke: #000000; stroke-linejoin: miter"/>
   </g>
   <g id="patch_46">
    <path d="M 257.17686 212.965289 
L 283.953719 212.965289 
L 283.953719 186.18843 
L 257.17686 186.18843 
z
" clip-path="url(#p47ffbdd33a)" style="fill: #ffc0cb; stroke: #000000; stroke-linejoin: miter"/>
   </g>
   <g id="patch_47">
    <path d="M 257.17686 159.41157 
L 283.953719 159.41157 
L 283.953719 132.634711 
L 257.17686 132.634711 
z
" clip-path="url(#p47ffbdd33a)" style="fill: #ff0000; stroke: #000000; stroke-linejoin: miter"/>
   </g>
   <g id="patch_48">
    <path d="M 257.17686 132.634711 
L 283.953719 132.634711 
L 283.953719 105.857851 
L 257.17686 105.857851 
z
" clip-path="url(#p47ffbdd33a)" style="fill: #ffa07a; stroke: #000000; stroke-linejoin: miter"/>
   </g>
   <g id="patch_49">
    <path d="M 257.17686 105.857851 
L 283.953719 105.857851 
L 283.953719 79.080992 
L 257.17686 79.080992 
z
" clip-path="url(#p47ffbdd33a)" style="fill: #ffa07a; stroke: #000000; stroke-linejoin: miter"/>
   </g>
   <g id="patch_50">
    <path d="M 257.17686 79.080992 
L 283.953719 79.080992 
L 283.953719 52.304132 
L 257.17686 52.304132 
z
" clip-path="url(#p47ffbdd33a)" style="fill: #00ffff; stroke: #000000; stroke-linejoin: miter"/>
   </g>
   <g id="patch_51">
    <path d="M 257.17686 52.304132 
L 283.953719 52.304132 
L 283.953719 25.527273 
L 257.17686 25.527273 
z
" clip-path="url(#p47ffbdd33a)" style="fill: #008000; stroke: #000000; stroke-linejoin: miter"/>
   </g>
   <g id="patch_52">
    <path d="M 283.953719 320.072727 
L 310.730579 320.072727 
L 310.730579 293.295868 
L 283.953719 293.295868 
z
" clip-path="url(#p47ffbdd33a)" style="fill: #a52a2a; stroke: #000000; stroke-linejoin: miter"/>
   </g>
   <g id="patch_53">
    <path d="M 283.953719 293.295868 
L 310.730579 293.295868 
L 310.730579 266.519008 
L 283.953719 266.519008 
z
" clip-path="url(#p47ffbdd33a)" style="fill: #a52a2a; stroke: #000000; stroke-linejoin: miter"/>
   </g>
   <g id="patch_54">
    <path d="M 283.953719 266.519008 
L 310.730579 266.519008 
L 310.730579 239.742149 
L 283.953719 239.742149 
z
" clip-path="url(#p47ffbdd33a)" style="fill: #ffc0cb; stroke: #000000; stroke-linejoin: miter"/>
   </g>
   <g id="patch_55">
    <path d="M 283.953719 239.742149 
L 310.730579 239.742149 
L 310.730579 212.965289 
L 283.953719 212.965289 
z
" clip-path="url(#p47ffbdd33a)" style="fill: #ffc0cb; stroke: #000000; stroke-linejoin: miter"/>
   </g>
   <g id="patch_56">
    <path d="M 283.953719 212.965289 
L 310.730579 212.965289 
L 310.730579 186.18843 
L 283.953719 186.18843 
z
" clip-path="url(#p47ffbdd33a)" style="fill: #ffc0cb; stroke: #000000; stroke-linejoin: miter"/>
   </g>
   <g id="patch_57">
    <path d="M 283.953719 159.41157 
L 310.730579 159.41157 
L 310.730579 132.634711 
L 283.953719 132.634711 
z
" clip-path="url(#p47ffbdd33a)" style="fill: #ffa07a; stroke: #000000; stroke-linejoin: miter"/>
   </g>
   <g id="patch_58">
    <path d="M 283.953719 132.634711 
L 310.730579 132.634711 
L 310.730579 105.857851 
L 283.953719 105.857851 
z
" clip-path="url(#p47ffbdd33a)" style="fill: #ffa07a; stroke: #000000; stroke-linejoin: miter"/>
   </g>
   <g id="patch_59">
    <path d="M 283.953719 105.857851 
L 310.730579 105.857851 
L 310.730579 79.080992 
L 283.953719 79.080992 
z
" clip-path="url(#p47ffbdd33a)" style="fill: #00ffff; stroke: #000000; stroke-linejoin: miter"/>
   </g>
   <g id="patch_60">
    <path d="M 283.953719 79.080992 
L 310.730579 79.080992 
L 310.730579 52.304132 
L 283.953719 52.304132 
z
" clip-path="url(#p47ffbdd33a)" style="fill: #00ffff; stroke: #000000; stroke-linejoin: miter"/>
   </g>
   <g id="patch_61">
    <path d="M 283.953719 52.304132 
L 310.730579 52.304132 
L 310.730579 25.527273 
L 283.953719 25.527273 
z
" clip-path="url(#p47ffbdd33a)" style="fill: #00ffff; stroke: #000000; stroke-linejoin: miter"/>
   </g>
  </g>
 </g>
 <defs>
  <clipPath id="p47ffbdd33a">
   <rect x="142.036364" y="10.8" width="176.727273" height="324"/>
  </clipPath>
 </defs>
</svg>
