<?xml version="1.0" encoding="utf-8" standalone="no"?>
<!DOCTYPE svg PUBLIC "-//W3C//DTD SVG 1.1//EN"
  "http://www.w3.org/Graphics/SVG/1.1/DTD/svg11.dtd">
<svg xmlns:xlink="http://www.w3.org/1999/xlink" width="460.8pt" height="345.6pt" viewBox="0 0 460.8 345.6" xmlns="http://www.w3.org/2000/svg" version="1.1">
 <metadata>
  <rdf:RDF xmlns:dc="http://purl.org/dc/elements/1.1/" xmlns:cc="http://creativecommons.org/ns#" xmlns:rdf="http://www.w3.org/1999/02/22-rdf-syntax-ns#">
   <cc:Work>
    <dc:type rdf:resource="http://purl.org/dc/dcmitype/StillImage"/>
    <dc:date>2025-02-17T19:36:18.609785</dc:date>
    <dc:format>image/svg+xml</dc:format>
    <dc:creator>
     <cc:Agent>
      <dc:title>Matplotlib v3.9.3, https://matplotlib.org/</dc:title>
     </cc:Agent>
    </dc:creator>
   </cc:Work>
  </rdf:RDF>
 </metadata>
 <defs>
  <style type="text/css">*{stroke-linejoin: round; stroke-linecap: butt}</style>
 </defs>
 <g id="figure_1">
  <g id="patch_1">
   <path d="M 0 345.6 
L 460.8 345.6 
L 460.8 0 
L 0 0 
z
" style="fill: #ffffff"/>
  </g>
  <g id="axes_1">
   <g id="patch_2">
    <path d="M 81.60109 246.436364 
L 124.115064 172.8 
L 39.087115 172.8 
z
" clip-path="url(#p870045b23e)" style="fill: #800080; stroke: #000000; stroke-linejoin: miter"/>
   </g>
   <g id="patch_3">
    <path d="M 39.087115 172.8 
L 124.115064 172.8 
L 81.60109 99.163636 
z
" clip-path="url(#p870045b23e)" style="fill: #800080; stroke: #000000; stroke-linejoin: miter"/>
   </g>
   <g id="patch_4">
    <path d="M 124.115064 172.8 
L 166.629038 99.163636 
L 81.60109 99.163636 
z
" clip-path="url(#p870045b23e)" style="fill: #800080; stroke: #000000; stroke-linejoin: miter"/>
   </g>
   <g id="patch_5">
    <path d="M 81.60109 99.163636 
L 166.629038 99.163636 
L 124.115064 25.527273 
z
" clip-path="url(#p870045b23e)" style="fill: #0000ff; stroke: #000000; stroke-linejoin: miter"/>
   </g>
   <g id="patch_6">
    <path d="M 166.629038 99.163636 
L 209.143013 25.527273 
L 124.115064 25.527273 
z
" clip-path="url(#p870045b23e)" style="fill: #ffa500; stroke: #000000; stroke-linejoin: miter"/>
   </g>
   <g id="patch_7">
    <path d="M 124.115064 320.072727 
L 166.629038 246.436364 
L 81.60109 246.436364 
z
" clip-path="url(#p870045b23e)" style="fill: #ffa500; stroke: #000000; stroke-linejoin: miter"/>
   </g>
   <g id="patch_8">
    <path d="M 81.60109 246.436364 
L 166.629038 246.436364 
L 124.115064 172.8 
z
" clip-path="url(#p870045b23e)" style="fill: #800080; stroke: #000000; stroke-linejoin: miter"/>
   </g>
   <g id="patch_9">
    <path d="M 166.629038 246.436364 
L 209.143013 172.8 
L 124.115064 172.8 
z
" clip-path="url(#p870045b23e)" style="fill: #008000; stroke: #000000; stroke-linejoin: miter"/>
   </g>
   <g id="patch_10">
    <path d="M 124.115064 172.8 
L 209.143013 172.8 
L 166.629038 99.163636 
z
" clip-path="url(#p870045b23e)" style="fill: #008000; stroke: #000000; stroke-linejoin: miter"/>
   </g>
   <g id="patch_11">
    <path d="M 209.143013 172.8 
L 251.656987 99.163636 
L 166.629038 99.163636 
z
" clip-path="url(#p870045b23e)" style="fill: #008000; stroke: #000000; stroke-linejoin: miter"/>
   </g>
   <g id="patch_12">
    <path d="M 166.629038 99.163636 
L 251.656987 99.163636 
L 209.143013 25.527273 
z
" clip-path="url(#p870045b23e)" style="fill: #ff0000; stroke: #000000; stroke-linejoin: miter"/>
   </g>
   <g id="patch_13">
    <path d="M 251.656987 99.163636 
L 294.170962 25.527273 
L 209.143013 25.527273 
z
" clip-path="url(#p870045b23e)" style="fill: #ff0000; stroke: #000000; stroke-linejoin: miter"/>
   </g>
   <g id="patch_14">
    <path d="M 124.115064 320.072727 
L 209.143013 320.072727 
L 166.629038 246.436364 
z
" clip-path="url(#p870045b23e)" style="fill: #ffa500; stroke: #000000; stroke-linejoin: miter"/>
   </g>
   <g id="patch_15">
    <path d="M 209.143013 320.072727 
L 251.656987 246.436364 
L 166.629038 246.436364 
z
" clip-path="url(#p870045b23e)" style="fill: #ffa500; stroke: #000000; stroke-linejoin: miter"/>
   </g>
   <g id="patch_16">
    <path d="M 166.629038 246.436364 
L 251.656987 246.436364 
L 209.143013 172.8 
z
" clip-path="url(#p870045b23e)" style="fill: #ffa500; stroke: #000000; stroke-linejoin: miter"/>
   </g>
   <g id="patch_17">
    <path d="M 251.656987 246.436364 
L 294.170962 172.8 
L 209.143013 172.8 
z
" clip-path="url(#p870045b23e)" style="fill: #0000ff; stroke: #000000; stroke-linejoin: miter"/>
   </g>
   <g id="patch_18">
    <path d="M 209.143013 172.8 
L 294.170962 172.8 
L 251.656987 99.163636 
z
" clip-path="url(#p870045b23e)" style="fill: #008000; stroke: #000000; stroke-linejoin: miter"/>
   </g>
   <g id="patch_19">
    <path d="M 294.170962 172.8 
L 336.684936 99.163636 
L 251.656987 99.163636 
z
" clip-path="url(#p870045b23e)" style="fill: #ff0000; stroke: #000000; stroke-linejoin: miter"/>
   </g>
   <g id="patch_20">
    <path d="M 251.656987 99.163636 
L 336.684936 99.163636 
L 294.170962 25.527273 
z
" clip-path="url(#p870045b23e)" style="fill: #ff0000; stroke: #000000; stroke-linejoin: miter"/>
   </g>
   <g id="patch_21">
    <path d="M 209.143013 320.072727 
L 294.170962 320.072727 
L 251.656987 246.436364 
z
" clip-path="url(#p870045b23e)" style="fill: #ff0000; stroke: #000000; stroke-linejoin: miter"/>
   </g>
   <g id="patch_22">
    <path d="M 294.170962 320.072727 
L 336.684936 246.436364 
L 251.656987 246.436364 
z
" clip-path="url(#p870045b23e)" style="fill: #800080; stroke: #000000; stroke-linejoin: miter"/>
   </g>
   <g id="patch_23">
    <path d="M 251.656987 246.436364 
L 336.684936 246.436364 
L 294.170962 172.8 
z
" clip-path="url(#p870045b23e)" style="fill: #0000ff; stroke: #000000; stroke-linejoin: miter"/>
   </g>
   <g id="patch_24">
    <path d="M 336.684936 246.436364 
L 379.19891 172.8 
L 294.170962 172.8 
z
" clip-path="url(#p870045b23e)" style="fill: #0000ff; stroke: #000000; stroke-linejoin: miter"/>
   </g>
   <g id="patch_25">
    <path d="M 294.170962 172.8 
L 379.19891 172.8 
L 336.684936 99.163636 
z
" clip-path="url(#p870045b23e)" style="fill: #0000ff; stroke: #000000; stroke-linejoin: miter"/>
   </g>
   <g id="patch_26">
    <path d="M 379.19891 320.072727 
L 421.712885 246.436364 
L 336.684936 246.436364 
z
" clip-path="url(#p870045b23e)" style="fill: #008000; stroke: #000000; stroke-linejoin: miter"/>
   </g>
  </g>
 </g>
 <defs>
  <clipPath id="p870045b23e">
   <rect x="19.955827" y="10.8" width="420.888347" height="324"/>
  </clipPath>
 </defs>
</svg>
